<?xml version="1.0" encoding="UTF-8" standalone="no"?>
<svg width="40" height="40"
 viewBox="0 0 412 412"
 xmlns="http://www.w3.org/2000/svg" xmlns:xlink="http://www.w3.org/1999/xlink"  version="1.2" baseProfile="tiny">
<title>SVG Generator Example Drawing</title>
<desc>An SVG drawing created by the SVG Generator Example provided with Qt.</desc>
<defs>
</defs>
<g fill="none" stroke="black" stroke-width="1" fill-rule="evenodd" stroke-linecap="square" stroke-linejoin="bevel" >

<g fill="#ff0000" fill-opacity="0.1" stroke="#ff0000" stroke-opacity="1" stroke-width="12" stroke-linecap="square" stroke-linejoin="miter" stroke-miterlimit="2" transform="matrix(1,0,0,1,0,0)"
font-family="SimSun" font-size="9" font-weight="400" font-style="normal"
>
<path vector-effect="none" fill-rule="evenodd" d="M407,206.5 C407,317.233 317.233,407 206.5,407 C95.7669,407 6,317.233 6,206.5 C6,95.7669 95.7669,6 206.5,6 C317.233,6 407,95.7669 407,206.5 "/>
</g>

<g fill="#ff0000" fill-opacity="1" stroke="#ff0000" stroke-opacity="1" stroke-width="12" stroke-linecap="square" stroke-linejoin="miter" stroke-miterlimit="2" transform="matrix(1,0,0,1,0,0)"
font-family="SimSun" font-size="9" font-weight="400" font-style="normal"
>
<polyline fill="none" vector-effect="none" points="330,309 322,283 308,303 " />
<polyline fill="none" vector-effect="none" points="83,309 91,283 105,303 " />
<polyline fill="none" vector-effect="none" points="181,123 234,123 " />
<polyline fill="none" vector-effect="none" points="206,85 206,374 " />
<path vector-effect="none" fill-rule="evenodd" d="M214,65.5 C214,69.0899 210.642,72 206.5,72 C202.358,72 199,69.0899 199,65.5 C199,61.9101 202.358,59 206.5,59 C210.642,59 214,61.9101 214,65.5 "/>
<path vector-effect="none" fill-rule="evenodd" d="M235,65 C235,76.598 222.912,86 208,86 C193.088,86 181,76.598 181,65 C181,53.402 193.088,44 208,44 C222.912,44 235,53.402 235,65 "/>
</g>

<g fill="#ff000" stroke="#ff0000" stroke-opacity="1" stroke-width="12" stroke-linecap="square" stroke-linejoin="miter" stroke-miterlimit="2" transform="matrix(1,0,0,1,0,0)"
font-family="SimSun" font-size="9" font-weight="400" font-style="normal"
>
<path vector-effect="none" fill-rule="evenodd" d="M94.0053,299.778 C94.0018,300.019 94,300.259 94,300.5 C94,341.093 144.592,374 207,374 C269.408,374 320,341.093 320,300.5 C320,300.312 319.999,300.124 319.997,299.936 "/>
</g>
</g>
</svg>
