<?xml version="1.0" encoding="UTF-8" standalone="no"?>
<svg width="40" height="40"
 viewBox="0 0 549 230"
 xmlns="http://www.w3.org/2000/svg" xmlns:xlink="http://www.w3.org/1999/xlink"  version="1.2" baseProfile="tiny">
<title>SVG Generator Example Drawing</title>
<desc>An SVG drawing created by the SVG Generator Example provided with Qt.</desc>
<defs>
</defs>
<g fill="#ff0000" fill-opacity="0.1" stroke="black" stroke-width="1" fill-rule="evenodd" stroke-linecap="square" stroke-linejoin="bevel" >

<g fill="#ff0000" fill-opacity="0.1" stroke="#ff0000" stroke-opacity="1" stroke-width="25" stroke-linecap="square" stroke-linejoin="miter" stroke-miterlimit="2" transform="matrix(1,0,0,1,0,0)"
font-family="SimSun" font-size="9" font-weight="400" font-style="normal"
>
<polyline fill="#ff0000" fill-opacity="0.1" vector-effect="none" points="276,12 256,13 236,14 216,17 196,20 177,24 158,29 139,35 121,42 103,50 86,59 70,69 54,79 40,91 26,103 12,116 39,141 70,163 103,182 139,196 177,207 216,214 255,218 294,218 334,214 373,207 411,196 446,181 480,163 510,141 537,116 524,104 510,91 495,80 480,70 463,60 446,52 429,44 411,37 392,31 373,25 354,21 335,18 315,15 295,13 276,12 " />
</g>

<g fill="#ff0000" fill-opacity="1" stroke="#ff0000" stroke-opacity="1" stroke-width="25" stroke-linecap="square" stroke-linejoin="miter" stroke-miterlimit="2" transform="matrix(1,0,0,1,0,0)"
font-family="SimSun" font-size="9" font-weight="400" font-style="normal"
>
<polyline fill="#ff0000" fill-opacity="0.1" vector-effect="none" points="276,124 228,124 228,123 228,124 228,123 228,124 229,128 230,132 231,136 233,140 235,144 238,148 241,151 245,154 248,157 253,160 257,162 262,163 266,164 271,165 276,166 281,165 286,164 290,163 295,162 300,160 304,157 307,154 311,151 314,148 317,144 319,140 321,136 322,132 323,128 324,124 276,124 " />
<path vector-effect="none" fill-rule="evenodd" d="M333,116.5 C333,147.704 307.928,173 277,173 C246.072,173 221,147.704 221,116.5 C221,85.2959 246.072,60 277,60 C307.928,60 333,85.2959 333,116.5 "/>
</g>
</g>
</svg>
