<?xml version="1.0" encoding="UTF-8" standalone="no"?>
<svg width="40px" height="40px"
 viewBox="0 0 528 520"
 xmlns="http://www.w3.org/2000/svg" xmlns:xlink="http://www.w3.org/1999/xlink"  version="1.2" baseProfile="tiny">
<title>SVG Generator Example Drawing</title>
<desc>An SVG drawing created by the SVG Generator Example provided with Qt.</desc>
<defs>
</defs>
<g fill="#ff0000" fill-opacity="0.1" stroke="black" stroke-width="1" fill-rule="evenodd" stroke-linecap="square" stroke-linejoin="bevel" >

<g fill="#0000ff" fill-opacity="1" stroke="#ff0000" stroke-opacity="1" stroke-width="12" stroke-linecap="square" stroke-linejoin="miter" stroke-miterlimit="2" transform="matrix(1,0,0,1,0,0)"
font-family="SimSun" font-size="9" font-weight="400" font-style="normal"
>
<path vector-effect="none" fill-rule="evenodd" d="M261,451 L273,450 L261,451"/>
<polyline fill="#ff0000" fill-opacity="0.1" vector-effect="none" points="261,451 273,450 286,448 298,444 309,440 320,434 330,428 339,420 348,411 356,402 362,392 368,381 372,370 376,358 378,345 379,333 378,320 376,307 372,295 368,284 362,273 356,263 348,255 339,246 330,238 320,232 309,226 298,222 286,218 273,216 261,215 249,216 236,218 224,222 213,226 202,232 192,238 183,246 174,255 166,263 160,273 154,284 150,295 146,307 144,320 143,333 144,345 146,358 150,370 154,381 160,392 166,402 174,411 183,420 192,428 202,434 213,440 224,444 236,448 249,450 261,451 " />
<polyline fill="#ff0000" fill-opacity="0.1" vector-effect="none" points="33,268 265,41 497,268 497,489 33,489 33,268 " />
</g>

<g fill="#0000ff" fill-opacity="1" stroke="#ff0000" stroke-opacity="1" stroke-width="15" stroke-linecap="square" stroke-linejoin="miter" stroke-miterlimit="2" transform="matrix(1,0,0,1,0,0)"
font-family="SimSun" font-size="9" font-weight="400" font-style="normal"
>
<polyline fill="#ff0000" fill-opacity="0.1" vector-effect="none" points="7,513 519,513 " />
<polyline fill="#ff0000" fill-opacity="0.1" vector-effect="none" points="9,263 265,7 521,263 " />
</g>

<g fill="#ffffff" fill-opacity="1" stroke="#ff0000" stroke-opacity="1" stroke-width="50" stroke-linecap="square" stroke-linejoin="miter" stroke-miterlimit="2" transform="matrix(1,0,0,1,0,0)"
font-family="SimSun" font-size="9" font-weight="400" font-style="normal"
>
<polyline fill="#ff0000" fill-opacity="0.1" vector-effect="none" points="187,337 355,337 187,337 " />
</g>

<g fill="#ffffff" fill-opacity="1" stroke="#ff0000" stroke-opacity="1" stroke-width="50" stroke-linecap="square" stroke-linejoin="miter" stroke-miterlimit="2" transform="matrix(1,0,0,1,0,0)"
font-family="SimSun" font-size="9" font-weight="400" font-style="normal"
>
<polyline fill="#ff0000" fill-opacity="0.1" vector-effect="none" points="261,267 261,427 261,267 " />
</g>
</g>
</svg>
