<?xml version="1.0" standalone="no"?><!DOCTYPE svg PUBLIC "-//W3C//DTD SVG 1.1//EN"
  "http://www.w3.org/Graphics/SVG/1.1/DTD/svg11.dtd">
<svg t="1721291790131" class="icon" viewBox="0 0 1024 1024" version="1.1" xmlns="http://www.w3.org/2000/svg"
     p-id="16878" xmlns:xlink="http://www.w3.org/1999/xlink" width="60" height="60">
  <path
    d="M511.4 959.6c-112.1 0-217.7-12.8-297.2-36.2-39.3-11.5-70.3-25-92.1-40.2-24.6-17-37-35.8-37-55.7s12.5-38.7 37-55.7c21.9-15.1 52.8-28.7 92.1-40.2 79.5-23.3 185.1-36.2 297.2-36.2s217.7 12.8 297.2 36.2c39.3 11.5 70.3 25 92.1 40.2 24.6 17 37 35.8 37 55.7s-12.5 38.7-37 55.7c-21.9 15.1-52.8 28.7-92.1 40.2-79.5 23.4-185.1 36.2-297.2 36.2z m0-244.1c-110.3 0-213.9 12.6-291.6 35.4-71.9 21-114.8 49.7-114.8 76.7s42.9 55.7 114.8 76.7c77.8 22.8 181.3 35.4 291.6 35.4 110.3 0 213.9-12.6 291.6-35.4 71.9-21.1 114.8-49.8 114.8-76.7s-42.9-55.7-114.8-76.7c-77.8-22.9-181.3-35.4-291.6-35.4z"
    fill="#FC0B0B" opacity=".4" p-id="16879"></path>
  <path
    d="M511.4 907.7c-83.6 0-162.3-6.4-221.8-18-29.9-5.8-53.6-12.8-70.6-20.6-23.8-11-35.8-25-35.8-41.6s12-30.5 35.8-41.5c17-7.8 40.7-14.8 70.6-20.6 59.4-11.6 138.2-18 221.8-18 83.6 0 162.3 6.4 221.8 18 29.9 5.8 53.6 12.8 70.6 20.6 23.8 11 35.8 25 35.8 41.6s-12.1 30.6-35.8 41.6c-17 7.8-40.7 14.8-70.6 20.6-59.5 11.5-138.3 17.9-221.8 17.9z m-285.2-80.1c7.6 5.2 28.8 15.7 84.5 25.3 55.2 9.5 126.5 14.8 200.7 14.8 74.2 0 145.4-5.2 200.7-14.8 55.7-9.6 76.9-20.2 84.5-25.3-7.6-5.2-28.8-15.7-84.5-25.3-55.2-9.5-126.5-14.8-200.7-14.8-74.2 0-145.4 5.2-200.7 14.8-55.7 9.5-77 20.1-84.5 25.3z"
    fill="#FF0D0D" opacity=".6" p-id="16880"></path>
  <path d="M523.2 242.5m-33.6 0a33.6 33.6 0 1 0 67.2 0 33.6 33.6 0 1 0-67.2 0Z" fill="#ED1C24" p-id="16881"></path>
  <path
    d="M511.4 65.8c-124.6 0-225.5 101-225.5 225.5 0 37.8 9.3 73.5 25.8 104.8l199.7 434.2 199.7-434.2c16.5-31.3 25.8-67 25.8-104.8 0-124.5-101-225.5-225.5-225.5z m0 372.1c-79.6 0-144.2-64.6-144.2-144.2s64.6-144.2 144.2-144.2S655.5 214 655.5 293.7c0 79.6-64.5 144.2-144.1 144.2z"
    fill="#ED1C24" p-id="16882"></path>
</svg>
