<?xml version="1.0" standalone="no"?><!DOCTYPE svg PUBLIC "-//W3C//DTD SVG 1.1//EN" "http://www.w3.org/Graphics/SVG/1.1/DTD/svg11.dtd"><svg t="1720812651295" class="icon" viewBox="0 0 1024 1024" version="1.1" xmlns="http://www.w3.org/2000/svg" p-id="36120" xmlns:xlink="http://www.w3.org/1999/xlink" width="30" height="30"><path d="M512.031 0C299.969 0 127.969 171.938 127.969 384c0 212.125 384.063 640 384.063 640s384-427.875 384-640C896.031 171.938 724.094 0 512.031 0zM512.031 640c-141.438 0-256.063-114.625-256.063-256s114.625-256 256.063-256c141.375 0 256 114.625 256 256S653.406 640 512.031 640zM512.031 256c-70.688 0-128.063 57.312-128.063 128 0 70.688 57.375 128 128.063 128 70.687 0 127.938-57.312 127.938-128C639.969 313.312 582.719 256 512.031 256z" fill="#d81e06" p-id="36121"></path></svg>
