<?xml version="1.0" standalone="no"?><!DOCTYPE svg PUBLIC "-//W3C//DTD SVG 1.1//EN"
  "http://www.w3.org/Graphics/SVG/1.1/DTD/svg11.dtd">
<svg t="1720816319893" class="icon" viewBox="0 0 1024 1024" version="1.1" xmlns="http://www.w3.org/2000/svg"
     p-id="74934" xmlns:xlink="http://www.w3.org/1999/xlink" width="30" height="30">
  <path
    d="M513.0543 0C291.1793 0 109.8043 181.375 109.8043 403.25c0 213.375 360.5 595.25 375.5 610.125 6.375 6.375 17.125 10.625 25.625 10.625 10.625 0 19.25-4.25 27.75-12.75l125.875-142.875c166.375-202.625 249.625-360.5 249.625-465.125C916.1793 181.375 734.9293 0 513.0543 0z m-1.125 670.5c-155.75 0-281.625-125.875-281.625-281.625 0-155.75 125.875-283.75 281.625-283.75C667.6793 105.125 793.5543 231 793.5543 386.75c0 155.75-125.875 283.75-281.625 283.75zM312.6793 508.75c2.375-10.75 6.75-20.875 12-30.625 14.375-26.625 34.75-47.875 59.25-65.25 24.5-17.375 51.375-29.625 79.875-38.75 19-6.125 38.375-10.375 57.875-14 28.625-5.25 57.5-7.25 86.625-6.625 2.375 0 3-0.625 3-3-0.125-21.25-0.125-42.375 0-63.625 0-2.25-0.5-2.875-2.875-2.875-65.875 0.125-131.625 0-197.5 0-1.625 0-2.75-0.125-2.75 2.375 0.125 20.75 0 41.5 0.125 62.25 0 0.5 0.125 1 0.125 1.75 52-20.5 105.625-26.875 160.875-18.5-2.5 0.25-5.125 0.625-7.625 0.875-26.5 2.625-52.5 7.125-78.375 13.125-45.625 10.625-89.75 25.375-130.75 48.5-6.125 3.5-12.125 7.125-18.375 10.875-1.125-7.875-1.25-15.5-1-23.25 1.25-30.125 9.25-58.25 25.125-83.875 23.25-37.625 56.125-63.125 98.5-76.125 21.5-6.625 43.5-8.625 66-6.75 64.5 5.5 120.25 47.125 144.75 105 6 14 10 28.625 12 43.75 0.25 2.125 1 3 3 3.75 21.75 8.125 40.875 20 57 36.875 0.75 0.75 1.625 1.375 2.125 2.875-4.625-1.25-9-2.25-13.25-3.5-16.75-5.125-33.625-8.875-51-11.5-23-3.625-46.125-4.875-69.375-4.25-19.25 0.5-38.5 2.25-57.625 5.25-18.875 3-37.625 6.5-56.125 11-27 6.625-53.125 15.25-78 27.875-1.625 0.875-2.25 1.75-2.25 3.5 0.125 12.375 0.125 24.75 0 37.125 0 2.125 0.75 2.5 2.625 2.5h200c2 0 2.625-0.5 2.625-2.5-0.125-12-0.125-24 0-36 0-2.125-0.875-2.625-2.625-2.875-14.5-2-29-2.375-43.625-2-15.25 0.375-30.375 1.25-45.5 2.625-11.375 1-22.75 2.25-34.25 3.5-7.25 0.75-14.5 1.625-21.625 2.5-0.125-0.125-0.125-0.25-0.125-0.375 0-0.125 0.125-0.125 0.125-0.125 9.25-2.625 18.625-4.625 28.125-6.625 13.375-2.875 26.875-5.375 40.375-7.5 11.375-1.75 22.875-3.25 34.25-4.625 28.25-3.25 56.5-5 85-4.75 5.75 0 11.5 0.375 17.25 0.5 1.625 0 1.875 0.5 1.625 2-5.875 31.25-19.25 58.875-40.25 82.75-20.375 23.125-45.25 39.75-74.375 49.75-13.25 4.5-26.875 7.375-40.875 8.625-18.125 1.625-36 0.625-53.75-3.375-27.625-6.125-52.375-18.375-74-36.5-15.625-13-28.5-28.375-38.625-45.875-0.875-1.625-1.5-1.75-3-0.625-10.5 8.625-20.75 17.5-30.375 27-3.125 3.125-6.875 5.625-9.875 9-1-0.125-0.625-0.75-0.5-1.25z"
    fill="#ff0000" p-id="74935"></path>
</svg>
