<?xml version="1.0" standalone="no"?><!DOCTYPE svg PUBLIC "-//W3C//DTD SVG 1.1//EN"
  "http://www.w3.org/Graphics/SVG/1.1/DTD/svg11.dtd">
<svg t="1720816392437" class="icon" viewBox="0 0 1024 1024" version="1.1" xmlns="http://www.w3.org/2000/svg"
     p-id="76754" xmlns:xlink="http://www.w3.org/1999/xlink" width="30" height="30">
  <path
    d="M512 55.296c-194.048 0-351.744 157.696-351.744 351.744 0 187.392 315.392 520.192 328.704 534.016 6.144 6.144 14.336 9.728 23.04 9.728h0.512c8.704 0 17.408-4.096 23.552-11.264l109.056-124.928c145.408-177.664 218.624-314.88 218.624-408.064 0.512-193.024-157.696-351.232-351.744-351.232z m0 512c-88.576 0-159.744-71.68-159.744-159.744s71.68-159.744 159.744-159.744 159.744 71.68 159.744 159.744-71.168 159.744-159.744 159.744z"
    fill="#ff0000" p-id="76755"></path>
  <path d="M512 406.016m-166.912 0a166.912 166.912 0 1 0 333.824 0 166.912 166.912 0 1 0-333.824 0Z" fill="#FFFFFF00"
        p-id="76756"></path>
</svg>
