<?xml version="1.0" standalone="no"?><!DOCTYPE svg PUBLIC "-//W3C//DTD SVG 1.1//EN" "http://www.w3.org/Graphics/SVG/1.1/DTD/svg11.dtd"><svg t="1726647439088" class="icon" viewBox="0 0 1024 1024" version="1.1" xmlns="http://www.w3.org/2000/svg" p-id="5089" xmlns:xlink="http://www.w3.org/1999/xlink" width="40" height="40"><path d="M970.752 229.376L505.856 29.696 40.96 229.376v567.296l464.896 197.632 39.936-17.408h8.192V972.8l415.744-177.152V229.376zM505.856 398.336L388.096 348.16l330.752-152.576c1.024 0 1.024-1.024 2.048-1.024l132.096 56.32-347.136 147.456z m133.12-238.592l-333.824 153.6-146.432-62.464L505.856 102.4l133.12 57.344zM107.52 301.056l133.12 56.32V563.2c0 18.432 15.36 32.768 32.768 32.768 18.432 0 32.768-15.36 32.768-32.768V386.048l181.248 76.8v451.584L107.52 752.64V301.056z m446.464 601.088V450.56l349.184-148.48v451.584L553.984 902.144z m0 0" fill="#d81e06" p-id="5090"></path></svg>