<?xml version="1.0" standalone="no"?><!DOCTYPE svg PUBLIC "-//W3C//DTD SVG 1.1//EN" "http://www.w3.org/Graphics/SVG/1.1/DTD/svg11.dtd"><svg t="1726643651827" class="icon" viewBox="0 0 1024 1024" version="1.1" xmlns="http://www.w3.org/2000/svg" p-id="7716" xmlns:xlink="http://www.w3.org/1999/xlink" width="35" height="35"><path d="M336.56 365.069h48.246c8.772 0 15.35-4.386 19.737-10.966 4.386-8.772 4.386-17.544 0-26.316-4.386-6.579-10.965-10.965-19.737-13.158H283.927c-6.579 2.193-13.158 2.193-19.737 8.772-6.579 6.58-13.158 13.158-19.737 21.93-2.193 2.193-2.193 4.386-4.386 6.58-6.579-15.352-13.158-28.51-26.316-35.089h-10.965c-13.158 8.772-21.93 21.93-26.316 35.088l-4.386-4.386c-8.772-8.772-17.544-17.544-28.51-26.316-4.385-2.193-8.771-4.386-13.157-4.386H29.538c-8.772 0-15.35 4.386-19.737 13.158-4.386 8.772-4.386 15.351 0 24.123 4.386 8.773 10.965 13.159 21.93 13.159 100.879-2.193 201.757-2.193 304.828-2.193z m668.867-46.054c-4.386-2.193-10.965-4.386-15.351-6.579h-96.493c-4.386 2.193-8.772 2.193-10.965 4.386-4.386 2.193-8.772 6.58-13.158 10.965l-19.737 19.737c-8.772-10.965-15.351-26.316-28.509-32.895h-8.772c-13.158 6.58-21.93 19.737-28.51 35.088-8.771-8.772-15.35-17.544-24.122-26.316-6.58-4.386-10.965-8.772-19.737-8.772H639.194c-10.965 0-17.544 6.58-21.93 15.351-6.579 15.351 4.386 35.089 21.93 35.089H992.27c10.965 0 19.737-8.772 24.123-17.545 4.386-10.965-2.193-21.93-10.965-28.509z m-149.125 109.65v-43.86h-78.948v43.86h-175.44c-2.194 0-4.387 0-6.58-2.192l-13.158-19.737c-8.772-10.965-21.93-21.93-35.088-26.316-13.158-6.58-28.509-8.772-43.86-6.58-10.965 2.194-21.93 4.387-30.702 8.773-17.544 8.772-32.895 24.123-41.667 41.667-2.193 4.386-4.386 4.386-8.772 4.386H257.61c-4.386 0-8.772 2.193-10.965 0-2.193-2.193 0-8.772 0-10.965v-32.895h-78.948v43.86h-2.193c-10.965 0-19.737 6.579-24.123 15.35-4.386 8.773-2.193 21.93 6.579 28.51 4.386 4.386 10.965 6.579 17.544 8.772 32.895 8.772 65.79 19.737 96.492 28.509 17.544 4.386 35.088 10.965 52.632 15.351 8.772 2.193 19.737 6.58 28.51 8.772-6.58 6.58-15.352 10.965-21.93 17.544-10.966 8.772-21.93 17.544-35.089 26.316-10.965 8.772-24.123 19.737-35.088 28.51-10.965 6.578-15.35 17.543-15.35 28.508v89.914c4.385 21.93 30.701 32.895 48.245 21.93 10.965-6.58 15.351-17.544 15.351-28.51v-61.404c0-4.386 0-6.579 4.386-8.772l59.212-32.895c10.965-6.579 19.737-10.965 30.702-17.544 30.702 30.702 70.176 46.053 114.036 46.053s81.141-15.35 114.036-46.053c8.772 4.386 15.351 8.772 24.123 13.158 21.93 13.158 46.054 26.316 67.984 37.281 2.193 2.193 4.386 4.386 4.386 6.58v72.369c2.193 15.35 19.737 24.123 32.895 24.123 17.544 0 30.702-15.351 30.702-32.895v-87.72c0-8.773-4.386-17.545-13.158-24.124l-32.895-26.316c-15.351-13.158-30.702-24.123-46.053-37.28-4.386-4.387-8.772-8.773-15.351-13.159 2.193 0 4.386 0 6.579-2.193 28.509-8.772 54.825-15.351 83.334-24.123 32.895-8.772 63.597-19.737 96.492-28.51 15.351-4.385 26.316-24.122 17.544-39.473-4.386-2.193-10.965-6.58-21.93-6.58zM512 599.72c-15.351 0-26.316-10.965-28.51-28.509 0-15.35 10.966-28.509 28.51-28.509 15.351 0 28.51 13.158 28.51 28.51-2.194 15.35-13.159 28.508-28.51 28.508z" fill="#d81e06" p-id="7717"></path></svg>