<?xml version="1.0" standalone="no"?><!DOCTYPE svg PUBLIC "-//W3C//DTD SVG 1.1//EN" "http://www.w3.org/Graphics/SVG/1.1/DTD/svg11.dtd"><svg t="1720102960212" class="icon" viewBox="0 0 1024 1024" version="1.1" xmlns="http://www.w3.org/2000/svg" p-id="1544" xmlns:xlink="http://www.w3.org/1999/xlink" width="40" height="40"><path d="M512 62.2c-247.9 0-448.9 201-448.9 448.9S264.1 960 512 960s448.9-201 448.9-448.9S759.9 62.2 512 62.2z m195.8 719.5H316.2c-20.3 0-36.7-16.5-36.7-36.7 0-20.3 16.4-36.7 36.7-36.7h159.1V561.4h-36.7c-20.3 0-36.7-16.4-36.7-36.7 0-20.3 16.4-36.7 36.7-36.7h146.9c20.3 0 36.7 16.4 36.7 36.7 0 20.3-16.4 36.7-36.7 36.7h-36.7v146.9h159.1c20.3 0 36.7 16.5 36.7 36.7-0.1 20.3-16.5 36.7-36.8 36.7zM693.7 682c-14.3 14.3-37.6 14.3-51.9 0s-14.3-37.6 0-51.9c71.7-71.7 71.7-187.9 0-259.6s-187.9-71.7-259.6 0-71.7 187.9 0 259.6c14.3 14.3 14.3 37.6 0 51.9s-37.6 14.3-51.9 0c-100.4-100.4-100.4-263.1 0-363.5 36.3-36.5 82.8-61.1 133.4-70.7 4.2-26.7 29.2-45 55.9-40.8 21 3.3 37.5 19.8 40.8 40.8 50.6 9.6 97 34.3 133.4 70.7 100.3 100.4 100.3 263.1-0.1 363.5z" fill="#19A97B" p-id="1545"></path></svg>
