<?xml version="1.0" standalone="no"?><!DOCTYPE svg PUBLIC "-//W3C//DTD SVG 1.1//EN"
  "http://www.w3.org/Graphics/SVG/1.1/DTD/svg11.dtd">
<svg t="1720102954620" class="icon" viewBox="0 0 1024 1024" version="1.1" xmlns="http://www.w3.org/2000/svg" p-id="1395"
     xmlns:xlink="http://www.w3.org/1999/xlink" width="45" height="45">
  <path
    d="M531.636706 951.416471c241.513412-207.721412 362.255059-379.843765 362.255059-516.397177C893.891765 224.707765 722.913882 54.211765 512 54.211765S130.108235 224.707765 130.108235 435.019294c0 136.553412 120.771765 308.705882 362.255059 516.397177a30.117647 30.117647 0 0 0 39.273412 0z"
    fill="#FFFFFF00" p-id="1396"></path>
  <path
    d="M512 15.058824C279.009882 15.058824 90.352941 203.173647 90.352941 435.019294c0 129.295059 92.461176 279.762824 275.184941 454.776471l21.473883 20.299294a2601.562353 2601.562353 0 0 0 69.270588 62.223059l12.137412 10.480941c24.997647 21.473882 62.162824 21.473882 87.100235 0.060235l24.274824-21.082353a2409.411765 2409.411765 0 0 0 89.148235-82.100706l20.299294-19.968c162.334118-162.273882 244.404706-302.893176 244.404706-424.658823C933.647059 203.143529 744.990118 15.058824 512 15.058824z m0 78.336c188.837647 0 342.136471 152.847059 342.136471 341.62447l-0.090353 6.264471c-3.734588 117.458824-111.856941 273.046588-327.258353 462.125176l-14.817883 12.860235-3.222588-2.800941c-11.745882-10.209882-23.190588-20.299294-34.334118-30.298353l-21.835294-19.877647-21.022117-19.57647c-175.194353-165.586824-261.722353-302.983529-261.722353-408.696471C169.863529 246.241882 323.162353 93.394824 512 93.394824z"
    fill="red" p-id="1397"></path>
  <path
    d="M591.600941 602.895059c-52.284235 40.749176-109.116235 38.460235-161.430588-2.288941 0 0-86.407529 65.656471-136.402824 65.65647h22.738824c29.545412 0 81.829647-13.583059 109.116235-29.424941 54.573176 31.713882 118.211765 31.713882 172.784941 0 27.256471 15.841882 79.570824 29.424941 109.116236 29.424941h22.708706c-49.995294 2.288941-138.661647-63.367529-138.661647-63.367529M391.529412 295.002353h236.423529v92.822588l-118.211765-45.296941-118.211764 45.296941V295.002353M350.569412 602.864941c31.834353 0 61.379765-20.359529 79.570823-47.555765 20.48 27.166118 47.736471 47.555765 79.570824 47.555765 31.804235 0 59.090824-20.389647 79.570823-47.555765 20.449882 27.166118 47.736471 47.555765 79.570824 47.555765l47.73647-153.931294c2.258824-6.776471 0-13.583059 0-18.100706-2.288941-6.806588-6.836706-9.065412-11.354352-11.324235l-36.382118-15.841882V295.002353c0-27.166118-18.160941-47.525647-40.929882-47.525647h-59.090824l-13.673412-58.849882h-88.636235l-15.902118 58.819764H391.529412c-22.708706 0-40.929882 22.678588-40.929883 47.585883v108.634353l-36.382117 13.583058a27.346824 27.346824 0 0 0-11.354353 11.324236 24.756706 24.756706 0 0 0 0 18.070588l47.73647 156.220235"
    fill="red" p-id="1398"></path>
</svg>
