<?xml version="1.0" standalone="no"?><!DOCTYPE svg PUBLIC "-//W3C//DTD SVG 1.1//EN" "http://www.w3.org/Graphics/SVG/1.1/DTD/svg11.dtd"><svg t="1720761652324" class="icon" viewBox="0 0 1024 1024" version="1.1" xmlns="http://www.w3.org/2000/svg" p-id="9088" id="mx_n_1720761652325" xmlns:xlink="http://www.w3.org/1999/xlink" width="45" height="45"><path d="M316.4 1003.7h-66.3c-0.8 0-1.5-0.7-1.5-1.5V44.6c0-19.1 15.6-34.7 34.7-34.7S318 25.5 318 44.6v957.7c-0.1 0.8-0.8 1.4-1.6 1.4z" fill="#ff0000" p-id="9089"></path><path d="M283.3 9.9c-0.8 0-1.6 0.2-2.5 0.2v993.3c0.8 0.1 1.6 0.3 2.5 0.3 19.1 0 34.7-15.6 34.7-34.7V44.6c-0.1-19.1-15.7-34.7-34.7-34.7z" fill="#ff0000" p-id="9090" data-spm-anchor-id="a313x.search_index.0.i1.168f3a8141eFw2" class=""></path><path d="M849.2 467.1H517.1V123.6h332.1l-92.4 171.7z" fill="#FF0000" p-id="9091"></path><path d="M283.3 105.7h352.9v343.5H283.3z" fill="#ff0000" p-id="9092"></path><path d="M635.8 122.2l130 184.1-9.5-17.3 93.5-165.4z" fill="#ff0000" p-id="9093"></path><path d="M354.8 1011.4h-143l36.8-50h69.3z" fill="#1A7FC0" p-id="9094"></path><path d="M280.8 1011.4h74l-36.9-50h-37.1z" fill="#2D416C" p-id="9095"></path></svg>
